<?xml version="1.0" standalone="no"?>
<!DOCTYPE svg PUBLIC "-//W3C//DTD SVG 20010904//EN"
 "http://www.w3.org/TR/2001/REC-SVG-20010904/DTD/svg10.dtd">
<svg version="1.0" xmlns="http://www.w3.org/2000/svg"
 width="139.000000pt" height="125.000000pt" viewBox="0 0 139.000000 125.000000"
 preserveAspectRatio="xMidYMid meet">

<g transform="translate(0.000000,125.000000) scale(0.100000,-0.100000)"
fill="#000000" stroke="none">
<path d="M565 1216 c-246 -57 -421 -230 -471 -466 -55 -261 88 -544 331 -656
88 -40 154 -54 257 -54 161 0 292 55 409 170 130 130 185 270 176 450 -10 206
-111 375 -289 482 -121 74 -286 103 -413 74z m174 -68 c82 -55 160 -142 199
-223 41 -84 40 -94 -4 -45 -20 22 -66 54 -102 72 -61 30 -75 33 -157 33 -77
-1 -98 -5 -145 -28 -71 -34 -143 -106 -178 -177 -23 -47 -27 -70 -30 -161 -7
-183 46 -307 190 -452 48 -48 84 -87 80 -87 -23 0 -124 36 -177 63 -73 36
-189 150 -228 224 -36 68 -67 191 -67 267 1 248 185 482 426 540 99 24 124 21
193 -26z m180 -19 c65 -31 99 -55 151 -108 110 -111 160 -235 160 -396 0 -238
-155 -448 -383 -520 -43 -14 -100 -25 -126 -25 -44 0 -56 6 -117 54 -93 73
-164 161 -203 251 l-13 30 39 -36 c62 -59 122 -88 202 -98 118 -15 218 18 301
101 130 130 142 382 27 588 -17 30 -65 90 -108 132 -73 73 -76 77 -46 72 18
-3 70 -24 116 -45z m-111 -209 c69 -30 144 -111 168 -182 70 -210 -82 -422
-301 -422 -169 0 -302 127 -313 298 -14 239 223 402 446 306z"/>
</g>
</svg>
