<?xml version="1.0" standalone="no"?>
<!DOCTYPE svg PUBLIC "-//W3C//DTD SVG 20010904//EN"
 "http://www.w3.org/TR/2001/REC-SVG-20010904/DTD/svg10.dtd">
<svg version="1.0" xmlns="http://www.w3.org/2000/svg"
 width="407.000000pt" height="104.000000pt" viewBox="0 0 407.000000 104.000000"
 preserveAspectRatio="xMidYMid meet">

<g transform="translate(0.000000,104.000000) scale(0.100000,-0.100000)"
fill="#000000" stroke="none">
<path d="M2341 856 c-8 -9 -11 -87 -9 -261 3 -223 5 -249 21 -259 12 -8 22 -8
35 0 14 9 18 31 22 130 6 128 16 159 56 174 38 15 62 12 84 -10 18 -18 20 -33
20 -138 0 -126 11 -162 50 -162 32 0 40 33 40 158 0 165 -18 212 -89 232 -43
12 -100 -2 -126 -30 -10 -11 -22 -20 -27 -20 -4 0 -8 40 -8 88 0 90 -8 112
-41 112 -9 0 -22 -6 -28 -14z"/>
<path d="M1975 828 c-71 -26 -111 -72 -116 -133 -1 -17 -1 -89 -1 -162 l2
-132 55 -20 c79 -30 196 -29 250 2 22 12 50 38 63 57 20 30 23 43 17 90 -3 30
-8 103 -11 162 l-5 107 -47 16 c-61 21 -169 28 -207 13z m159 -78 c16 -6 26
-17 26 -30 0 -18 -4 -20 -39 -14 -55 9 -83 -9 -79 -49 3 -27 9 -34 46 -47 23
-9 54 -28 69 -42 35 -36 26 -90 -20 -118 -55 -34 -189 -23 -195 16 -3 19 1 20
52 16 48 -4 55 -2 66 18 17 32 -1 66 -40 75 -17 4 -44 18 -60 32 -51 43 -35
122 30 146 25 9 117 8 144 -3z"/>
<path d="M1180 781 c-5 -11 -10 -31 -10 -45 0 -21 -5 -25 -32 -28 -29 -3 -33
-6 -33 -33 0 -25 5 -32 32 -39 l31 -10 4 -122 c2 -103 6 -125 22 -143 35 -39
125 -40 146 -2 17 33 2 51 -41 51 l-39 0 0 109 0 108 39 7 c69 11 65 76 -5 76
-30 0 -34 3 -34 26 0 39 -18 64 -45 64 -14 0 -29 -8 -35 -19z"/>
<path d="M387 715 c-21 -7 -47 -21 -57 -30 -17 -15 -19 -15 -25 4 -7 23 -34
35 -58 25 -24 -9 -29 -53 -25 -218 2 -117 6 -149 18 -156 22 -14 36 -12 54 6
13 12 16 39 16 130 0 114 0 116 29 145 42 41 106 37 127 -8 4 -10 10 -74 13
-142 5 -103 9 -126 23 -135 13 -8 23 -8 35 0 15 10 18 30 21 141 2 86 -2 143
-10 168 -22 66 -89 95 -161 70z"/>
<path d="M796 719 c-96 -22 -150 -92 -151 -194 0 -118 80 -199 195 -198 115 1
190 79 190 198 0 133 -108 222 -234 194z m89 -85 c44 -20 69 -73 62 -128 -7
-49 -62 -106 -102 -106 -65 0 -115 55 -115 127 0 52 19 85 60 105 43 22 53 22
95 2z"/>
<path d="M1585 725 c-5 -2 -22 -6 -37 -9 -38 -9 -96 -62 -113 -104 -19 -43
-19 -133 -1 -175 12 -29 77 -96 94 -97 4 -1 27 -5 51 -9 82 -16 186 26 179 73
-4 27 -40 32 -83 12 -41 -20 -68 -20 -109 -1 -27 13 -66 59 -66 79 0 3 62 7
138 8 136 3 137 3 140 27 13 87 -59 177 -153 193 -16 3 -34 4 -40 3z m74 -101
c54 -45 43 -54 -64 -54 -86 0 -94 2 -88 18 23 63 98 81 152 36z"/>
<path d="M2860 718 c-52 -15 -86 -43 -109 -93 -28 -60 -28 -140 0 -200 41 -87
154 -124 233 -77 35 21 36 21 46 2 14 -27 45 -25 64 2 13 18 16 54 16 180 0
145 -2 160 -20 178 -25 25 -35 25 -58 0 -17 -18 -21 -19 -48 -6 -43 21 -85 26
-124 14z m133 -108 c23 -25 27 -39 27 -86 0 -48 -4 -60 -29 -84 -36 -36 -73
-46 -112 -29 -65 26 -89 121 -49 187 37 61 113 67 163 12z"/>
<path d="M3352 720 c-18 -4 -44 -18 -57 -30 -23 -22 -23 -22 -30 -1 -10 32
-45 38 -67 11 -16 -19 -18 -42 -18 -174 0 -121 3 -156 16 -174 18 -26 37 -28
58 -6 13 12 16 39 16 125 0 154 19 185 108 177 26 -2 38 2 49 19 13 20 13 23
-6 42 -12 12 -24 21 -28 20 -5 -1 -23 -5 -41 -9z"/>
<path d="M3654 720 c-18 -4 -48 -17 -68 -30 -86 -53 -109 -202 -45 -292 28
-39 101 -71 163 -71 69 0 136 34 136 69 0 34 -24 40 -82 19 -60 -21 -115 -10
-147 32 -40 50 -33 53 107 53 136 0 152 5 152 47 0 32 -26 93 -53 121 -42 45
-106 65 -163 52z m104 -105 c12 -14 22 -30 22 -36 0 -5 -42 -9 -95 -9 -52 0
-95 3 -95 8 0 15 33 54 54 63 35 14 89 2 114 -26z"/>
</g>
</svg>
